<svg xmlns="http://www.w3.org/2000/svg" xmlns:xlink="http://www.w3.org/1999/xlink" width="500" zoomAndPan="magnify" viewBox="0 0 375 374.999991" height="500" preserveAspectRatio="xMidYMid meet" version="1.0"><defs><g/></defs><g fill="#fbfaf9" fill-opacity="1"><g transform="translate(44.002934, 221.647658)"><g><path d="M 70.15625 -6.519531 L 70.15625 -63.523438 C 70.15625 -66.445312 72.292969 -67.457031 77.691406 -68.132812 L 77.691406 -69.820312 C 72.855469 -69.480469 67.121094 -69.480469 62.175781 -69.820312 L 41.597656 -13.15625 L 19 -69.820312 C 13.15625 -69.480469 8.207031 -69.480469 2.472656 -69.820312 L 2.472656 -68.132812 C 8.207031 -67.457031 10.792969 -66.558594 10.792969 -63.296875 L 10.792969 -6.519531 C 10.792969 -2.699219 8.769531 -2.472656 1.6875 -1.6875 L 1.6875 0 C 8.65625 -0.335938 15.851562 -0.335938 23.046875 0 L 23.046875 -1.6875 C 16.191406 -2.472656 13.828125 -2.699219 13.828125 -6.519531 L 13.828125 -61.273438 L 38.113281 0 L 39.464844 0 L 62.175781 -61.273438 L 62.175781 -6.519531 C 62.175781 -2.699219 60.039062 -2.359375 54.191406 -1.6875 L 54.191406 0 C 61.949219 -0.335938 70.382812 -0.335938 78.027344 0 L 78.027344 -1.6875 C 72.292969 -2.359375 70.15625 -2.699219 70.15625 -6.519531 Z M 70.15625 -6.519531 "/></g></g></g><g fill="#fbfaf9" fill-opacity="1"><g transform="translate(116.969187, 221.647658)"><g><path d="M 70.15625 -6.519531 L 70.15625 -63.523438 C 70.15625 -66.445312 72.292969 -67.457031 77.691406 -68.132812 L 77.691406 -69.820312 C 72.855469 -69.480469 67.121094 -69.480469 62.175781 -69.820312 L 41.597656 -13.15625 L 19 -69.820312 C 13.15625 -69.480469 8.207031 -69.480469 2.472656 -69.820312 L 2.472656 -68.132812 C 8.207031 -67.457031 10.792969 -66.558594 10.792969 -63.296875 L 10.792969 -6.519531 C 10.792969 -2.699219 8.769531 -2.472656 1.6875 -1.6875 L 1.6875 0 C 8.65625 -0.335938 15.851562 -0.335938 23.046875 0 L 23.046875 -1.6875 C 16.191406 -2.472656 13.828125 -2.699219 13.828125 -6.519531 L 13.828125 -61.273438 L 38.113281 0 L 39.464844 0 L 62.175781 -61.273438 L 62.175781 -6.519531 C 62.175781 -2.699219 60.039062 -2.359375 54.191406 -1.6875 L 54.191406 0 C 61.949219 -0.335938 70.382812 -0.335938 78.027344 0 L 78.027344 -1.6875 C 72.292969 -2.359375 70.15625 -2.699219 70.15625 -6.519531 Z M 70.15625 -6.519531 "/></g></g></g><path stroke-linecap="butt" transform="matrix(0.75, 0, 0, 0.75, 187.499992, 153.037915)" fill="none" stroke-linejoin="miter" d="M 0.0000104167 1.00153 L 191.328148 1.00153 " stroke="#fbfaf9" stroke-width="2" stroke-opacity="1" stroke-miterlimit="4"/><path stroke-linecap="butt" transform="matrix(0.75, 0.000000000000000201, -0.000000000000000201, 0.75, 172.20559, 221.239733)" fill="none" stroke-linejoin="miter" d="M 0.00192168 0.998065 L 211.720686 0.998065 " stroke="#fbfaf9" stroke-width="2" stroke-opacity="1" stroke-miterlimit="4"/><g fill="#fbfaf9" fill-opacity="1"><g transform="translate(194.840075, 183.756564)"><g><path d="M 12.125 -10.09375 L 12.125 0 L 11.109375 0 L 11.109375 -8.078125 L 7.140625 -1.28125 L 6.640625 -1.28125 L 2.671875 -8.03125 L 2.671875 0 L 1.640625 0 L 1.640625 -10.09375 L 2.53125 -10.09375 L 6.90625 -2.609375 L 11.25 -10.09375 Z M 12.125 -10.09375 "/></g></g></g><g fill="#fbfaf9" fill-opacity="1"><g transform="translate(216.536424, 183.756564)"><g><path d="M 7.96875 -2.703125 L 2.34375 -2.703125 L 1.140625 0 L 0.03125 0 L 4.640625 -10.09375 L 5.703125 -10.09375 L 10.3125 0 L 9.1875 0 Z M 7.59375 -3.5625 L 5.15625 -8.984375 L 2.734375 -3.5625 Z M 7.59375 -3.5625 "/></g></g></g><g fill="#fbfaf9" fill-opacity="1"><g transform="translate(234.802246, 183.756564)"><g><path d="M 5.421875 -10.09375 C 6.710938 -10.09375 7.722656 -9.785156 8.453125 -9.171875 C 9.179688 -8.554688 9.546875 -7.710938 9.546875 -6.640625 C 9.546875 -5.554688 9.179688 -4.707031 8.453125 -4.09375 C 7.722656 -3.488281 6.710938 -3.1875 5.421875 -3.1875 L 2.71875 -3.1875 L 2.71875 0 L 1.640625 0 L 1.640625 -10.09375 Z M 5.390625 -4.125 C 6.390625 -4.125 7.15625 -4.34375 7.6875 -4.78125 C 8.21875 -5.21875 8.484375 -5.835938 8.484375 -6.640625 C 8.484375 -7.453125 8.21875 -8.078125 7.6875 -8.515625 C 7.15625 -8.953125 6.390625 -9.171875 5.390625 -9.171875 L 2.71875 -9.171875 L 2.71875 -4.125 Z M 5.390625 -4.125 "/></g></g></g><g fill="#fbfaf9" fill-opacity="1"><g transform="translate(253.082476, 183.756564)"><g><path d="M 5.71875 0.09375 C 4.40625 0.09375 3.382812 -0.28125 2.65625 -1.03125 C 1.925781 -1.78125 1.5625 -2.875 1.5625 -4.3125 L 1.5625 -10.09375 L 2.625 -10.09375 L 2.625 -4.359375 C 2.625 -3.179688 2.890625 -2.300781 3.421875 -1.71875 C 3.953125 -1.144531 4.71875 -0.859375 5.71875 -0.859375 C 6.71875 -0.859375 7.484375 -1.144531 8.015625 -1.71875 C 8.546875 -2.300781 8.8125 -3.179688 8.8125 -4.359375 L 8.8125 -10.09375 L 9.84375 -10.09375 L 9.84375 -4.3125 C 9.84375 -2.875 9.476562 -1.78125 8.75 -1.03125 C 8.03125 -0.28125 7.019531 0.09375 5.71875 0.09375 Z M 5.71875 0.09375 "/></g></g></g><g fill="#fbfaf9" fill-opacity="1"><g transform="translate(272.429341, 183.756564)"><g><path d="M 1.640625 -10.09375 L 2.71875 -10.09375 L 2.71875 -0.921875 L 8.359375 -0.921875 L 8.359375 0 L 1.640625 0 Z M 1.640625 -10.09375 "/></g></g></g><g fill="#fbfaf9" fill-opacity="1"><g transform="translate(288.85017, 183.756564)"><g><path d="M 8.78125 -0.921875 L 8.78125 0 L 1.640625 0 L 1.640625 -10.09375 L 8.5625 -10.09375 L 8.5625 -9.171875 L 2.71875 -9.171875 L 2.71875 -5.578125 L 7.9375 -5.578125 L 7.9375 -4.671875 L 2.71875 -4.671875 L 2.71875 -0.921875 Z M 8.78125 -0.921875 "/></g></g></g><g fill="#fbfaf9" fill-opacity="1"><g transform="translate(194.840075, 201.756563)"><g><path d="M 10.4375 -8.6875 L 10.4375 0 L 9.546875 0 L 9.546875 -6.953125 L 6.140625 -1.109375 L 5.703125 -1.109375 L 2.296875 -6.90625 L 2.296875 0 L 1.421875 0 L 1.421875 -8.6875 L 2.171875 -8.6875 L 5.9375 -2.25 L 9.671875 -8.6875 Z M 10.4375 -8.6875 "/></g></g></g><g fill="#fbfaf9" fill-opacity="1"><g transform="translate(213.522796, 201.756563)"><g><path d="M 6.890625 -4.484375 C 7.453125 -4.359375 7.890625 -4.109375 8.203125 -3.734375 C 8.515625 -3.367188 8.671875 -2.894531 8.671875 -2.3125 C 8.671875 -1.570312 8.394531 -1 7.84375 -0.59375 C 7.289062 -0.195312 6.476562 0 5.40625 0 L 1.421875 0 L 1.421875 -8.6875 L 5.15625 -8.6875 C 6.125 -8.6875 6.875 -8.488281 7.40625 -8.09375 C 7.945312 -7.707031 8.21875 -7.160156 8.21875 -6.453125 C 8.21875 -5.972656 8.097656 -5.566406 7.859375 -5.234375 C 7.617188 -4.898438 7.296875 -4.648438 6.890625 -4.484375 Z M 2.328125 -7.921875 L 2.328125 -4.78125 L 5.09375 -4.78125 C 5.800781 -4.78125 6.34375 -4.910156 6.71875 -5.171875 C 7.101562 -5.441406 7.296875 -5.835938 7.296875 -6.359375 C 7.296875 -6.867188 7.101562 -7.253906 6.71875 -7.515625 C 6.34375 -7.785156 5.800781 -7.921875 5.09375 -7.921875 Z M 5.390625 -0.75 C 6.171875 -0.75 6.757812 -0.878906 7.15625 -1.140625 C 7.550781 -1.410156 7.75 -1.828125 7.75 -2.390625 C 7.75 -3.472656 6.960938 -4.015625 5.390625 -4.015625 L 2.328125 -4.015625 L 2.328125 -0.75 Z M 5.390625 -0.75 "/></g></g></g><g fill="#fbfaf9" fill-opacity="1"><g transform="translate(229.711061, 201.756563)"><g><path d="M 4.90625 0.078125 C 3.78125 0.078125 2.90625 -0.242188 2.28125 -0.890625 C 1.65625 -1.535156 1.34375 -2.472656 1.34375 -3.703125 L 1.34375 -8.6875 L 2.265625 -8.6875 L 2.265625 -3.75 C 2.265625 -2.738281 2.488281 -1.984375 2.9375 -1.484375 C 3.394531 -0.992188 4.050781 -0.75 4.90625 -0.75 C 5.78125 -0.75 6.441406 -0.992188 6.890625 -1.484375 C 7.347656 -1.984375 7.578125 -2.738281 7.578125 -3.75 L 7.578125 -8.6875 L 8.46875 -8.6875 L 8.46875 -3.703125 C 8.46875 -2.472656 8.15625 -1.535156 7.53125 -0.890625 C 6.90625 -0.242188 6.03125 0.078125 4.90625 0.078125 Z M 4.90625 0.078125 "/></g></g></g><g fill="#fbfaf9" fill-opacity="1"><g transform="translate(246.370916, 201.756563)"><g><path d="M 7.671875 -0.796875 L 7.671875 0 L 0.5625 0 L 0.5625 -0.625 L 6.3125 -7.890625 L 0.640625 -7.890625 L 0.640625 -8.6875 L 7.53125 -8.6875 L 7.53125 -8.046875 L 1.78125 -0.796875 Z M 7.671875 -0.796875 "/></g></g></g><g fill="#fbfaf9" fill-opacity="1"><g transform="translate(261.28093, 201.756563)"><g><path d="M 13.34375 -8.6875 L 10.40625 0 L 9.4375 0 L 6.890625 -7.40625 L 4.34375 0 L 3.390625 0 L 0.453125 -8.6875 L 1.40625 -8.6875 L 3.90625 -1.21875 L 6.5 -8.6875 L 7.359375 -8.6875 L 9.90625 -1.171875 L 12.453125 -8.6875 Z M 13.34375 -8.6875 "/></g></g></g><g fill="#fbfaf9" fill-opacity="1"><g transform="translate(281.899646, 201.756563)"><g><path d="M 6.859375 -2.3125 L 2.015625 -2.3125 L 0.984375 0 L 0.03125 0 L 4 -8.6875 L 4.90625 -8.6875 L 8.875 0 L 7.90625 0 Z M 6.53125 -3.0625 L 4.4375 -7.734375 L 2.359375 -3.0625 Z M 6.53125 -3.0625 "/></g></g></g><g fill="#fbfaf9" fill-opacity="1"><g transform="translate(297.628725, 201.756563)"><g><path d="M 8.671875 -8.6875 L 8.671875 0 L 7.921875 0 L 2.328125 -7.046875 L 2.328125 0 L 1.421875 0 L 1.421875 -8.6875 L 2.171875 -8.6875 L 7.765625 -1.640625 L 7.765625 -8.6875 Z M 8.671875 -8.6875 "/></g></g></g><g fill="#fbfaf9" fill-opacity="1"><g transform="translate(314.549192, 201.756563)"><g><path d="M 6.859375 -2.3125 L 2.015625 -2.3125 L 0.984375 0 L 0.03125 0 L 4 -8.6875 L 4.90625 -8.6875 L 8.875 0 L 7.90625 0 Z M 6.53125 -3.0625 L 4.4375 -7.734375 L 2.359375 -3.0625 Z M 6.53125 -3.0625 "/></g></g></g></svg>